Coordinates
version=1
nRows=24
nColumns=24
inDegrees=yes

Units are S.I. units (second, meters, Newtons, ...)
Angles are in degrees.

endheader
time	pelvis_tilt	pelvis_list	pelvis_rotation	pelvis_tx	pelvis_ty	pelvis_tz	hip_flexion_r	hip_adduction_r	hip_rotation_r	knee_angle_r	ankle_angle_r	subtalar_angle_r	mtp_angle_r	hip_flexion_l	hip_adduction_l	hip_rotation_l	knee_angle_l	ankle_angle_l	subtalar_angle_l	mtp_angle_l	lumbar_extension	lumbar_bending	lumbar_rotation
      3.69500000	     -4.76599015	     -1.64002601	     -6.79414663	     -0.96992080	     -0.04041181	     -0.13344931	     -7.99102887	      7.65516973	      6.62769252	    -28.48054387	      4.20448787	     14.98757781	     20.77867019	     34.94781698	     -0.70868691	     -9.15408276	    -13.96177924	      6.94715714	     12.82055291	    -12.99204740	      4.43220986	      1.85671585	      8.92408808
      3.70000000	     -4.82161376	     -1.23693297	     -6.83640837	     -0.96197567	     -0.04079994	     -0.13347802	     -7.72742026	      6.98048859	      6.07426054	    -29.59166555	      3.16155148	     16.27258145	     21.64740954	     34.84538596	     -0.24350568	     -9.25298685	    -14.52502886	      6.37293767	     12.23865489	    -12.98390283	      4.73747899	      1.37274685	      8.83759845
      3.70500000	     -4.82391143	     -0.80317003	     -6.76865813	     -0.95389870	     -0.04099521	     -0.13363077	     -7.54364148	      6.24653664	      5.38954479	    -30.50664497	      1.55021283	     17.19430127	     23.64062822	     34.62158258	      0.35406209	     -9.00606458	    -14.91302878	      5.44756806	     11.33799445	    -12.61722334	      5.00826674	      0.83275011	      8.66207778
      3.71000000	     -4.86187042	     -0.33062588	     -6.74211407	     -0.94592521	     -0.04115237	     -0.13371964	     -7.24754538	      5.45456837	      4.77579292	    -31.50669742	     -0.09363920	     18.29517607	     25.58917634	     34.48686112	      0.93357149	     -8.99261760	    -15.35536057	      4.44700602	     10.62033416	    -12.02543317	      5.29250638	      0.24695852	      8.45603427
      3.71500000	     -4.91721001	      0.17265784	     -6.69825055	     -0.93789024	     -0.04124607	     -0.13387598	     -6.88553183	      4.59056985	      4.07836708	    -32.56183714	     -1.81329669	     19.56456160	     27.24886241	     34.35990731	      1.56662200	     -8.81559757	    -15.77268468	      3.45634184	      9.85884986	    -11.61312663	      5.60882718	     -0.34993218	      8.31647460
      3.72000000	     -4.98797590	      0.67591478	     -6.66705830	     -0.93005539	     -0.04131951	     -0.13405528	     -6.42392492	      3.70383284	      3.43154051	    -33.71974635	     -3.53368230	     21.04331478	     28.70598708	     34.31770885	      2.18245390	     -8.69372257	    -16.29263184	      2.51517506	      9.18386141	    -11.45752894	      5.89556355	     -0.94530109	      8.14743297
      3.72500000	     -5.05724734	      1.23251394	     -6.54961379	     -0.92190833	     -0.04126230	     -0.13425485	     -6.01497089	      2.75946675	      2.73011430	    -34.68162013	     -5.78419557	     22.05353390	     30.82622307	     34.21880154	      2.92335690	     -8.31714372	    -16.73280205	      1.53265637	      8.35171141	    -11.27990942	      6.24709742	     -1.61965563	      7.87615897
      3.73000000	     -5.17616770	      1.75012914	     -6.49979332	     -0.91408329	     -0.04128597	     -0.13446167	     -5.42282995	      1.82901726	      2.13452693	    -35.87409381	     -7.82065542	     23.51545336	     32.15524810	     34.26763943	      3.56768841	     -8.06782195	    -17.34466242	      0.72350605	      7.68927561	    -11.39003203	      6.57668988	     -2.22196633	      7.69783673
      3.73500000	     -5.29886351	      2.27774828	     -6.39268716	     -0.90616990	     -0.04126916	     -0.13471887	     -4.82031600	      0.88793119	      1.52524068	    -37.01480531	    -10.14542098	     24.69592756	     33.59162622	     34.30998360	      4.27182083	     -7.64979246	    -17.96799659	     -0.00534256	      6.94561489	    -11.71004936	      6.92837630	     -2.84520193	      7.46088902
      3.74000000	     -5.41937952	      2.80139984	     -6.25716729	     -0.89815843	     -0.04121186	     -0.13491578	     -4.22314022	     -0.03134936	      0.96898409	    -38.08771986	    -12.75588362	     25.55708678	     35.17391240	     34.33946352	      4.98092425	     -7.20045114	    -18.63043023	     -0.48370840	      6.33297929	    -12.36063654	      7.29596758	     -3.48287336	      7.17187772
      3.74500000	     -5.60921145	      3.31368468	     -6.18235923	     -0.89032685	     -0.04128941	     -0.13512869	     -3.43319948	     -0.94012743	      0.57033476	    -39.41515731	    -15.03103104	     26.76941132	     35.57168476	     34.46442117	      5.63893000	     -6.81638916	    -19.31856686	     -0.91416492	      5.67985163	    -12.81904446	      7.70504808	     -4.06472350	      7.00982473
      3.75000000	     -5.78534182	      3.78692178	     -6.03553710	     -0.88257383	     -0.04137484	     -0.13544989	     -2.63314295	     -1.79713021	      0.13393161	    -40.74297899	    -17.49276779	     27.59922630	     35.88440652	     34.56515737	      6.31656297	     -6.30635287	    -20.00595611	     -1.22983720	      4.97175041	    -13.43674835	      8.07229579	     -4.61528526	      6.76726452
      3.75500000	     -5.95061570	      4.25358148	     -5.87369287	     -0.87487483	     -0.04146428	     -0.13576667	     -1.80058155	     -2.63115122	     -0.25492652	    -42.12884850	    -19.97310387	     28.19666805	     35.87167130	     34.63195658	      6.98812429	     -5.85172982	    -20.67153942	     -1.39824832	      4.35470262	    -14.07111283	      8.41016694	     -5.16349424	      6.53110189
      3.76000000	     -6.12777290	      4.72199274	     -5.61822767	     -0.86725925	     -0.04163345	     -0.13624612	     -0.92499102	     -3.47222413	     -0.70483962	    -43.58126360	    -22.36291133	     28.67243711	     35.57644984	     34.72563296	      7.70876691	     -5.42569484	    -21.40174870	     -1.22176236	      3.92639090	    -15.47063201	      8.73567685	     -5.71970580	      6.16607718
      3.76500000	     -6.19873587	      5.21867186	     -5.49696265	     -0.85971369	     -0.04161818	     -0.13646389	     -0.08065761	     -4.30133605	     -0.95254868	    -45.11049421	    -24.81075275	     28.59764253	     34.77542260	     34.59293542	      8.37742165	     -5.13562712	    -21.88354741	     -1.29104372	      3.43076680	    -15.67458331	      8.95166557	     -6.29946572	      6.02980984
      3.77000000	     -6.38219888	      5.63520206	     -5.20700675	     -0.85222604	     -0.04180898	     -0.13706560	      0.89065830	     -5.05261359	     -1.33271210	    -46.71117526	    -27.08010981	     28.45546256	     33.47483022	     34.56738215	      9.09012503	     -4.62438833	    -22.36812938	     -1.26385353	      2.80104905	    -15.94766931	      9.25552304	     -6.77883989	      5.69826688
      3.77500000	     -6.49725308	      6.10674835	     -4.92692022	     -0.84484661	     -0.04191287	     -0.13762989	      1.84820440	     -5.86143129	     -1.69826699	    -48.38620481	    -29.23363357	     27.92917183	     31.88252783	     34.41934871	      9.83985864	     -4.26134297	    -22.74476219	     -1.21773857	      2.30585859	    -16.08990873	      9.46730242	     -7.32688947	      5.40006241
      3.78000000	     -6.60559771	      6.58268945	     -4.60247237	     -0.83754662	     -0.04200689	     -0.13829518	      2.83026006	     -6.67127669	     -2.06943876	    -50.11669897	    -31.18805710	     27.12338249	     29.93198029	     34.21818868	     10.62579140	     -3.88431672	    -23.03865753	     -1.16782903	      1.82392390	    -16.11195111	      9.65283004	     -7.87886243	      5.04017794
      3.78500000	     -6.68654458	      7.07732933	     -4.26217453	     -0.83031644	     -0.04205018	     -0.13904077	      3.81631605	     -7.51299300	     -2.44606689	    -51.87200885	    -32.96953433	     26.04403498	     27.89952451	     33.92316864	     11.44823108	     -3.53255331	    -23.20827158	     -1.11593174	      1.35738808	    -16.01090075	      9.79268276	     -8.44843715	      4.67988373
      3.79000000	     -6.78060838	      7.59518077	     -3.81846937	     -0.82317502	     -0.04214469	     -0.13991346	      4.83427974	     -8.38630412	     -2.87159287	    -53.74559061	    -34.11651871	     24.94583046	     25.16739383	     33.62249615	     12.33948260	     -3.18805715	    -23.33328313	     -1.13207589	      0.93947523	    -15.62639807	      9.91611362	     -9.06732271	      4.18430591
      3.79500000	     -6.80821335	      8.09659407	     -3.49612596	     -0.81608082	     -0.04202408	     -0.14074307	      5.80939734	     -9.22149841	     -3.14242578	    -55.43557727	    -35.58818828	     23.31732388	     23.52976985	     33.15827843	     13.18952840	     -2.78557190	    -23.31070119	     -1.11060658	      0.38872296	    -15.44449228	      9.97913795	     -9.61759717	      3.89288432
      3.80000000	     -6.87774373	      8.57002361	     -2.99129983	     -0.80912111	     -0.04199235	     -0.14177384	      6.82085530	    -10.04234532	     -3.54976633	    -57.26739451	    -36.11962530	     21.87407842	     20.93191382	     32.73084205	     14.09055934	     -2.30440058	    -23.28317922	     -1.18132694	     -0.08483289	    -14.90266258	     10.02471012	    -10.17898772	      3.36743575
      3.80500000	     -6.91102567	      9.03057246	     -2.57027965	     -0.80222267	     -0.04180449	     -0.14272386	      7.81843035	    -10.81003606	     -3.80520750	    -58.97340163	    -36.60055227	     20.20042535	     19.13600029	     32.20120913	     14.94621238	     -1.81423245	    -23.15584157	     -1.23753638	     -0.62432661	    -14.47066674	     10.03771151	    -10.70258149	      2.96084517
      3.81000000	     -6.93097946	      9.47209568	     -2.21715503	     -0.79535673	     -0.04149046	     -0.14359576	      8.82307549	    -11.51185906	     -3.91987991	    -60.56085149	    -36.95161404	     18.43149874	     18.05833182	     31.60710223	     15.74825894	     -1.34305995	    -22.96254809	     -1.20022577	     -1.15467823	    -14.31473530	     10.04538422	    -11.18918224	      2.62990728
